<mxfile host="65bd71144e">
    <diagram id="cD7PS45kZMAy1JJQ16nZ" name="Use Case Diagram">
        <mxGraphModel dx="988" dy="420" grid="1" gridSize="10" guides="1" tooltips="1" connect="1" arrows="1" fold="1" page="1" pageScale="1" pageWidth="827" pageHeight="1169" math="0" shadow="0">
            <root>
                <mxCell id="0"/>
                <mxCell id="1" parent="0"/>
                <mxCell id="55" value="" style="rounded=1;whiteSpace=wrap;html=1;fontSize=24;direction=south;fillColor=#0050ef;fontColor=#ffffff;strokeColor=#CC0066;shadow=1;glass=0;sketch=1;gradientDirection=east;" vertex="1" parent="1">
                    <mxGeometry x="160" y="70" width="510" height="1180" as="geometry"/>
                </mxCell>
                <mxCell id="6" value="User" style="shape=umlActor;verticalLabelPosition=bottom;verticalAlign=top;html=1;outlineConnect=0;" vertex="1" parent="1">
                    <mxGeometry x="30" y="440" width="50" height="100" as="geometry"/>
                </mxCell>
                <mxCell id="10" value="&lt;font style=&quot;font-size: 14px;&quot;&gt;Chọn chế độ&lt;/font&gt;" style="ellipse;whiteSpace=wrap;html=1;" vertex="1" parent="1">
                    <mxGeometry x="220" y="140" width="120" height="80" as="geometry"/>
                </mxCell>
                <mxCell id="11" value="&lt;font style=&quot;font-size: 14px;&quot;&gt;Hoạt động tự động&lt;/font&gt;" style="ellipse;whiteSpace=wrap;html=1;" vertex="1" parent="1">
                    <mxGeometry x="460" y="140" width="120" height="80" as="geometry"/>
                </mxCell>
                <mxCell id="12" value="" style="endArrow=classic;html=1;exitX=0;exitY=0.5;exitDx=0;exitDy=0;entryX=1;entryY=0.5;entryDx=0;entryDy=0;dashed=1;" edge="1" parent="1" source="11" target="10">
                    <mxGeometry relative="1" as="geometry">
                        <mxPoint x="320" y="100" as="sourcePoint"/>
                        <mxPoint x="420" y="100" as="targetPoint"/>
                    </mxGeometry>
                </mxCell>
                <mxCell id="13" value="Mở rộng" style="edgeLabel;resizable=0;html=1;align=center;verticalAlign=middle;" connectable="0" vertex="1" parent="12">
                    <mxGeometry relative="1" as="geometry"/>
                </mxCell>
                <mxCell id="15" value="&lt;span data-lucid-content=&quot;{&amp;quot;t&amp;quot;:&amp;quot;Điều chỉnh ánh sáng&amp;quot;,&amp;quot;m&amp;quot;:[{&amp;quot;s&amp;quot;:0,&amp;quot;n&amp;quot;:&amp;quot;a&amp;quot;,&amp;quot;v&amp;quot;:&amp;quot;center&amp;quot;},{&amp;quot;s&amp;quot;:0,&amp;quot;n&amp;quot;:&amp;quot;fc&amp;quot;,&amp;quot;v&amp;quot;:&amp;quot;Oblique&amp;quot;,&amp;quot;e&amp;quot;:19},{&amp;quot;s&amp;quot;:0,&amp;quot;n&amp;quot;:&amp;quot;fid&amp;quot;,&amp;quot;v&amp;quot;:8,&amp;quot;e&amp;quot;:19},{&amp;quot;s&amp;quot;:0,&amp;quot;n&amp;quot;:&amp;quot;i&amp;quot;,&amp;quot;v&amp;quot;:true,&amp;quot;e&amp;quot;:19},{&amp;quot;s&amp;quot;:0,&amp;quot;n&amp;quot;:&amp;quot;s&amp;quot;,&amp;quot;v&amp;quot;:17.77777777777778,&amp;quot;e&amp;quot;:19},{&amp;quot;s&amp;quot;:0,&amp;quot;n&amp;quot;:&amp;quot;c&amp;quot;,&amp;quot;v&amp;quot;:&amp;quot;#ffffffff&amp;quot;,&amp;quot;e&amp;quot;:19}]}&quot; data-lucid-type=&quot;application/vnd.lucid.text&quot; style=&quot;font-size: 14px;&quot;&gt;&lt;span style=&quot;color: rgb(255, 255, 255); font-size: 14px;&quot;&gt;Điều chỉnh ánh sáng&lt;/span&gt;&lt;/span&gt;" style="ellipse;whiteSpace=wrap;html=1;fontSize=14;" vertex="1" parent="1">
                    <mxGeometry x="400" y="560" width="120" height="80" as="geometry"/>
                </mxCell>
                <mxCell id="16" value="&lt;font style=&quot;font-size: 14px;&quot;&gt;Xem báo cáo&lt;/font&gt;" style="ellipse;whiteSpace=wrap;html=1;" vertex="1" parent="1">
                    <mxGeometry x="210" y="240" width="120" height="80" as="geometry"/>
                </mxCell>
                <mxCell id="17" value="&lt;span data-lucid-content=&quot;{&amp;quot;t&amp;quot;:&amp;quot;Điều chỉnh ánh sáng&amp;quot;,&amp;quot;m&amp;quot;:[{&amp;quot;s&amp;quot;:0,&amp;quot;n&amp;quot;:&amp;quot;a&amp;quot;,&amp;quot;v&amp;quot;:&amp;quot;center&amp;quot;},{&amp;quot;s&amp;quot;:0,&amp;quot;n&amp;quot;:&amp;quot;fc&amp;quot;,&amp;quot;v&amp;quot;:&amp;quot;Oblique&amp;quot;,&amp;quot;e&amp;quot;:19},{&amp;quot;s&amp;quot;:0,&amp;quot;n&amp;quot;:&amp;quot;fid&amp;quot;,&amp;quot;v&amp;quot;:8,&amp;quot;e&amp;quot;:19},{&amp;quot;s&amp;quot;:0,&amp;quot;n&amp;quot;:&amp;quot;i&amp;quot;,&amp;quot;v&amp;quot;:true,&amp;quot;e&amp;quot;:19},{&amp;quot;s&amp;quot;:0,&amp;quot;n&amp;quot;:&amp;quot;s&amp;quot;,&amp;quot;v&amp;quot;:17.77777777777778,&amp;quot;e&amp;quot;:19},{&amp;quot;s&amp;quot;:0,&amp;quot;n&amp;quot;:&amp;quot;c&amp;quot;,&amp;quot;v&amp;quot;:&amp;quot;#ffffffff&amp;quot;,&amp;quot;e&amp;quot;:19}]}&quot; data-lucid-type=&quot;application/vnd.lucid.text&quot;&gt;&lt;span style=&quot;color: rgb(255, 255, 255);&quot;&gt;&lt;font style=&quot;font-size: 14px;&quot;&gt;Điều chỉnh độ ẩm&lt;/font&gt;&lt;/span&gt;&lt;/span&gt;" style="ellipse;whiteSpace=wrap;html=1;" vertex="1" parent="1">
                    <mxGeometry x="400" y="650" width="120" height="80" as="geometry"/>
                </mxCell>
                <mxCell id="18" value="&lt;font style=&quot;font-size: 14px;&quot;&gt;Xem nhiệt độ&lt;/font&gt;" style="ellipse;whiteSpace=wrap;html=1;" vertex="1" parent="1">
                    <mxGeometry x="450" y="240" width="120" height="80" as="geometry"/>
                </mxCell>
                <mxCell id="19" value="&lt;font style=&quot;font-size: 14px;&quot;&gt;Xem ánh sáng&lt;/font&gt;" style="ellipse;whiteSpace=wrap;html=1;" vertex="1" parent="1">
                    <mxGeometry x="380" y="380" width="120" height="80" as="geometry"/>
                </mxCell>
                <mxCell id="20" value="&lt;font style=&quot;font-size: 14px;&quot;&gt;Xem độ ẩm&lt;/font&gt;" style="ellipse;whiteSpace=wrap;html=1;" vertex="1" parent="1">
                    <mxGeometry x="520" y="330" width="120" height="80" as="geometry"/>
                </mxCell>
                <mxCell id="23" value="Bao gồm" style="endArrow=classic;html=1;dashed=1;exitX=1;exitY=0.5;exitDx=0;exitDy=0;entryX=0;entryY=0.5;entryDx=0;entryDy=0;" edge="1" parent="1" source="16" target="18">
                    <mxGeometry relative="1" as="geometry">
                        <mxPoint x="350" y="380" as="sourcePoint"/>
                        <mxPoint x="450" y="380" as="targetPoint"/>
                    </mxGeometry>
                </mxCell>
                <mxCell id="25" value="" style="endArrow=classic;html=1;dashed=1;entryX=0;entryY=0.5;entryDx=0;entryDy=0;" edge="1" parent="1" target="19">
                    <mxGeometry relative="1" as="geometry">
                        <mxPoint x="330" y="280" as="sourcePoint"/>
                        <mxPoint x="490" y="350" as="targetPoint"/>
                    </mxGeometry>
                </mxCell>
                <mxCell id="31" value="Bao gồm" style="edgeLabel;html=1;align=center;verticalAlign=middle;resizable=0;points=[];" vertex="1" connectable="0" parent="25">
                    <mxGeometry x="0.1725" y="2" relative="1" as="geometry">
                        <mxPoint x="-11" y="-11" as="offset"/>
                    </mxGeometry>
                </mxCell>
                <mxCell id="27" value="Bao gồm" style="endArrow=classic;html=1;dashed=1;entryX=0;entryY=0.5;entryDx=0;entryDy=0;" edge="1" parent="1" target="20">
                    <mxGeometry relative="1" as="geometry">
                        <mxPoint x="330" y="280" as="sourcePoint"/>
                        <mxPoint x="470" y="470" as="targetPoint"/>
                    </mxGeometry>
                </mxCell>
                <mxCell id="32" value="&lt;font color=&quot;#ffffff&quot; style=&quot;font-size: 14px;&quot;&gt;&lt;span style=&quot;font-size: 14px;&quot;&gt;Điều chỉnh nhiệt độ&lt;/span&gt;&lt;/font&gt;" style="ellipse;whiteSpace=wrap;html=1;fontSize=14;" vertex="1" parent="1">
                    <mxGeometry x="400" y="470" width="120" height="80" as="geometry"/>
                </mxCell>
                <mxCell id="33" value="&lt;font style=&quot;font-size: 14px;&quot;&gt;Điều chỉnh hệ thống môi trường&lt;/font&gt;" style="ellipse;whiteSpace=wrap;html=1;" vertex="1" parent="1">
                    <mxGeometry x="210" y="560" width="120" height="80" as="geometry"/>
                </mxCell>
                <mxCell id="34" value="Bao gồm" style="endArrow=classic;html=1;dashed=1;exitX=1;exitY=0.5;exitDx=0;exitDy=0;entryX=0;entryY=0.5;entryDx=0;entryDy=0;" edge="1" parent="1" source="33" target="32">
                    <mxGeometry relative="1" as="geometry">
                        <mxPoint x="300" y="610" as="sourcePoint"/>
                        <mxPoint x="400" y="510" as="targetPoint"/>
                    </mxGeometry>
                </mxCell>
                <mxCell id="35" value="" style="endArrow=classic;html=1;dashed=1;entryX=0;entryY=0.5;entryDx=0;entryDy=0;exitX=1;exitY=0.5;exitDx=0;exitDy=0;" edge="1" parent="1" source="33" target="17">
                    <mxGeometry relative="1" as="geometry">
                        <mxPoint x="280" y="510" as="sourcePoint"/>
                        <mxPoint x="330" y="650" as="targetPoint"/>
                    </mxGeometry>
                </mxCell>
                <mxCell id="36" value="Bao gồm" style="edgeLabel;html=1;align=center;verticalAlign=middle;resizable=0;points=[];" vertex="1" connectable="0" parent="35">
                    <mxGeometry x="0.1725" y="2" relative="1" as="geometry">
                        <mxPoint x="-11" y="-11" as="offset"/>
                    </mxGeometry>
                </mxCell>
                <mxCell id="37" value="Bao gồm" style="endArrow=classic;html=1;dashed=1;entryX=0;entryY=0.5;entryDx=0;entryDy=0;exitX=1;exitY=0.5;exitDx=0;exitDy=0;" edge="1" parent="1" source="33" target="15">
                    <mxGeometry relative="1" as="geometry">
                        <mxPoint x="280" y="510" as="sourcePoint"/>
                        <mxPoint x="470" y="600" as="targetPoint"/>
                    </mxGeometry>
                </mxCell>
                <mxCell id="39" value="&lt;span data-lucid-content=&quot;{&amp;quot;t&amp;quot;:&amp;quot;Điều chỉnh ánh sáng&amp;quot;,&amp;quot;m&amp;quot;:[{&amp;quot;s&amp;quot;:0,&amp;quot;n&amp;quot;:&amp;quot;a&amp;quot;,&amp;quot;v&amp;quot;:&amp;quot;center&amp;quot;},{&amp;quot;s&amp;quot;:0,&amp;quot;n&amp;quot;:&amp;quot;fc&amp;quot;,&amp;quot;v&amp;quot;:&amp;quot;Oblique&amp;quot;,&amp;quot;e&amp;quot;:19},{&amp;quot;s&amp;quot;:0,&amp;quot;n&amp;quot;:&amp;quot;fid&amp;quot;,&amp;quot;v&amp;quot;:8,&amp;quot;e&amp;quot;:19},{&amp;quot;s&amp;quot;:0,&amp;quot;n&amp;quot;:&amp;quot;i&amp;quot;,&amp;quot;v&amp;quot;:true,&amp;quot;e&amp;quot;:19},{&amp;quot;s&amp;quot;:0,&amp;quot;n&amp;quot;:&amp;quot;s&amp;quot;,&amp;quot;v&amp;quot;:17.77777777777778,&amp;quot;e&amp;quot;:19},{&amp;quot;s&amp;quot;:0,&amp;quot;n&amp;quot;:&amp;quot;c&amp;quot;,&amp;quot;v&amp;quot;:&amp;quot;#ffffffff&amp;quot;,&amp;quot;e&amp;quot;:19}]}&quot; data-lucid-type=&quot;application/vnd.lucid.text&quot;&gt;&lt;span style=&quot;color: rgb(255, 255, 255); font-size: 13.3333px;&quot;&gt;Thêm thông tin của cây&lt;/span&gt;&lt;/span&gt;" style="ellipse;whiteSpace=wrap;html=1;" vertex="1" parent="1">
                    <mxGeometry x="410" y="890" width="120" height="80" as="geometry"/>
                </mxCell>
                <mxCell id="40" value="&lt;span data-lucid-content=&quot;{&amp;quot;t&amp;quot;:&amp;quot;Điều chỉnh ánh sáng&amp;quot;,&amp;quot;m&amp;quot;:[{&amp;quot;s&amp;quot;:0,&amp;quot;n&amp;quot;:&amp;quot;a&amp;quot;,&amp;quot;v&amp;quot;:&amp;quot;center&amp;quot;},{&amp;quot;s&amp;quot;:0,&amp;quot;n&amp;quot;:&amp;quot;fc&amp;quot;,&amp;quot;v&amp;quot;:&amp;quot;Oblique&amp;quot;,&amp;quot;e&amp;quot;:19},{&amp;quot;s&amp;quot;:0,&amp;quot;n&amp;quot;:&amp;quot;fid&amp;quot;,&amp;quot;v&amp;quot;:8,&amp;quot;e&amp;quot;:19},{&amp;quot;s&amp;quot;:0,&amp;quot;n&amp;quot;:&amp;quot;i&amp;quot;,&amp;quot;v&amp;quot;:true,&amp;quot;e&amp;quot;:19},{&amp;quot;s&amp;quot;:0,&amp;quot;n&amp;quot;:&amp;quot;s&amp;quot;,&amp;quot;v&amp;quot;:17.77777777777778,&amp;quot;e&amp;quot;:19},{&amp;quot;s&amp;quot;:0,&amp;quot;n&amp;quot;:&amp;quot;c&amp;quot;,&amp;quot;v&amp;quot;:&amp;quot;#ffffffff&amp;quot;,&amp;quot;e&amp;quot;:19}]}&quot; data-lucid-type=&quot;application/vnd.lucid.text&quot;&gt;&lt;span style=&quot;color: rgb(255, 255, 255); font-size: 13.3333px;&quot;&gt;Sửa thông tin của cây&lt;/span&gt;&lt;/span&gt;" style="ellipse;whiteSpace=wrap;html=1;" vertex="1" parent="1">
                    <mxGeometry x="410" y="980" width="120" height="80" as="geometry"/>
                </mxCell>
                <mxCell id="41" value="&lt;font color=&quot;#ffffff&quot;&gt;&lt;span style=&quot;font-size: 13.3333px;&quot;&gt;Xem thông tin của cây&lt;/span&gt;&lt;/font&gt;" style="ellipse;whiteSpace=wrap;html=1;" vertex="1" parent="1">
                    <mxGeometry x="410" y="800" width="120" height="80" as="geometry"/>
                </mxCell>
                <mxCell id="42" value="&lt;font style=&quot;font-size: 14px;&quot;&gt;Quản lý cây&lt;/font&gt;" style="ellipse;whiteSpace=wrap;html=1;" vertex="1" parent="1">
                    <mxGeometry x="210" y="870" width="120" height="80" as="geometry"/>
                </mxCell>
                <mxCell id="43" value="Bao gồm" style="endArrow=classic;html=1;dashed=1;exitX=1;exitY=0.5;exitDx=0;exitDy=0;entryX=0;entryY=0.5;entryDx=0;entryDy=0;" edge="1" parent="1" source="42" target="41">
                    <mxGeometry relative="1" as="geometry">
                        <mxPoint x="320" y="900" as="sourcePoint"/>
                        <mxPoint x="420" y="800" as="targetPoint"/>
                    </mxGeometry>
                </mxCell>
                <mxCell id="44" value="" style="endArrow=classic;html=1;dashed=1;entryX=0;entryY=0.5;entryDx=0;entryDy=0;exitX=1;exitY=0.5;exitDx=0;exitDy=0;" edge="1" parent="1" target="40" source="42">
                    <mxGeometry relative="1" as="geometry">
                        <mxPoint x="300" y="800" as="sourcePoint"/>
                        <mxPoint x="350" y="940" as="targetPoint"/>
                    </mxGeometry>
                </mxCell>
                <mxCell id="45" value="Bao gồm" style="edgeLabel;html=1;align=center;verticalAlign=middle;resizable=0;points=[];" vertex="1" connectable="0" parent="44">
                    <mxGeometry x="0.1725" y="2" relative="1" as="geometry">
                        <mxPoint x="-11" y="-11" as="offset"/>
                    </mxGeometry>
                </mxCell>
                <mxCell id="46" value="Bao gồm" style="endArrow=classic;html=1;dashed=1;entryX=0;entryY=0.5;entryDx=0;entryDy=0;exitX=1;exitY=0.5;exitDx=0;exitDy=0;" edge="1" parent="1" target="39" source="42">
                    <mxGeometry relative="1" as="geometry">
                        <mxPoint x="300" y="800" as="sourcePoint"/>
                        <mxPoint x="490" y="890" as="targetPoint"/>
                    </mxGeometry>
                </mxCell>
                <mxCell id="47" value="&lt;span data-lucid-content=&quot;{&amp;quot;t&amp;quot;:&amp;quot;Điều chỉnh ánh sáng&amp;quot;,&amp;quot;m&amp;quot;:[{&amp;quot;s&amp;quot;:0,&amp;quot;n&amp;quot;:&amp;quot;a&amp;quot;,&amp;quot;v&amp;quot;:&amp;quot;center&amp;quot;},{&amp;quot;s&amp;quot;:0,&amp;quot;n&amp;quot;:&amp;quot;fc&amp;quot;,&amp;quot;v&amp;quot;:&amp;quot;Oblique&amp;quot;,&amp;quot;e&amp;quot;:19},{&amp;quot;s&amp;quot;:0,&amp;quot;n&amp;quot;:&amp;quot;fid&amp;quot;,&amp;quot;v&amp;quot;:8,&amp;quot;e&amp;quot;:19},{&amp;quot;s&amp;quot;:0,&amp;quot;n&amp;quot;:&amp;quot;i&amp;quot;,&amp;quot;v&amp;quot;:true,&amp;quot;e&amp;quot;:19},{&amp;quot;s&amp;quot;:0,&amp;quot;n&amp;quot;:&amp;quot;s&amp;quot;,&amp;quot;v&amp;quot;:17.77777777777778,&amp;quot;e&amp;quot;:19},{&amp;quot;s&amp;quot;:0,&amp;quot;n&amp;quot;:&amp;quot;c&amp;quot;,&amp;quot;v&amp;quot;:&amp;quot;#ffffffff&amp;quot;,&amp;quot;e&amp;quot;:19}]}&quot; data-lucid-type=&quot;application/vnd.lucid.text&quot;&gt;&lt;span style=&quot;color: rgb(255, 255, 255); font-size: 13.3333px;&quot;&gt;Xóa thông tin của cây&lt;/span&gt;&lt;/span&gt;" style="ellipse;whiteSpace=wrap;html=1;" vertex="1" parent="1">
                    <mxGeometry x="410" y="1080" width="120" height="80" as="geometry"/>
                </mxCell>
                <mxCell id="48" value="" style="endArrow=classic;html=1;dashed=1;entryX=0;entryY=0.5;entryDx=0;entryDy=0;exitX=1;exitY=0.5;exitDx=0;exitDy=0;" edge="1" parent="1" source="42" target="47">
                    <mxGeometry relative="1" as="geometry">
                        <mxPoint x="310" y="810" as="sourcePoint"/>
                        <mxPoint x="420" y="1000" as="targetPoint"/>
                    </mxGeometry>
                </mxCell>
                <mxCell id="49" value="Bao gồm" style="edgeLabel;html=1;align=center;verticalAlign=middle;resizable=0;points=[];" vertex="1" connectable="0" parent="48">
                    <mxGeometry x="0.1725" y="2" relative="1" as="geometry">
                        <mxPoint x="-11" y="-11" as="offset"/>
                    </mxGeometry>
                </mxCell>
                <mxCell id="50" value="Server" style="shape=umlActor;verticalLabelPosition=bottom;verticalAlign=top;html=1;outlineConnect=0;" vertex="1" parent="1">
                    <mxGeometry x="760" y="330" width="50" height="100" as="geometry"/>
                </mxCell>
                <mxCell id="54" value="&lt;font style=&quot;font-size: 14px;&quot;&gt;Thông báo&lt;/font&gt;" style="ellipse;whiteSpace=wrap;html=1;" vertex="1" parent="1">
                    <mxGeometry x="180" y="970" width="120" height="80" as="geometry"/>
                </mxCell>
                <mxCell id="56" value="&lt;font style=&quot;font-size: 24px&quot;&gt;Vườn thông minh triết&lt;/font&gt;" style="text;html=1;align=center;verticalAlign=middle;whiteSpace=wrap;rounded=0;fontStyle=1;fontColor=#66FF66;" vertex="1" parent="1">
                    <mxGeometry x="214" y="80" width="402" height="30" as="geometry"/>
                </mxCell>
                <mxCell id="57" value="" style="endArrow=classic;html=1;fontSize=14;exitX=1;exitY=0.3333333333333333;exitDx=0;exitDy=0;exitPerimeter=0;entryX=0;entryY=0.5;entryDx=0;entryDy=0;" edge="1" parent="1" source="6" target="10">
                    <mxGeometry width="50" height="50" relative="1" as="geometry">
                        <mxPoint x="100" y="380" as="sourcePoint"/>
                        <mxPoint x="150" y="330" as="targetPoint"/>
                    </mxGeometry>
                </mxCell>
                <mxCell id="58" value="" style="endArrow=classic;html=1;fontSize=14;exitX=1;exitY=0.3333333333333333;exitDx=0;exitDy=0;exitPerimeter=0;entryX=0;entryY=0.5;entryDx=0;entryDy=0;" edge="1" parent="1" source="6" target="16">
                    <mxGeometry width="50" height="50" relative="1" as="geometry">
                        <mxPoint x="110" y="450" as="sourcePoint"/>
                        <mxPoint x="160" y="400" as="targetPoint"/>
                    </mxGeometry>
                </mxCell>
                <mxCell id="60" value="" style="endArrow=classic;html=1;fontSize=14;entryX=0;entryY=0.5;entryDx=0;entryDy=0;exitX=1;exitY=0.3333333333333333;exitDx=0;exitDy=0;exitPerimeter=0;" edge="1" parent="1" source="6" target="33">
                    <mxGeometry width="50" height="50" relative="1" as="geometry">
                        <mxPoint x="110" y="390" as="sourcePoint"/>
                        <mxPoint x="130" y="530" as="targetPoint"/>
                    </mxGeometry>
                </mxCell>
                <mxCell id="61" value="" style="endArrow=classic;html=1;fontSize=14;entryX=0;entryY=0.5;entryDx=0;entryDy=0;exitX=1;exitY=0.3333333333333333;exitDx=0;exitDy=0;exitPerimeter=0;" edge="1" parent="1" source="6" target="42">
                    <mxGeometry width="50" height="50" relative="1" as="geometry">
                        <mxPoint x="110" y="380" as="sourcePoint"/>
                        <mxPoint x="150" y="590" as="targetPoint"/>
                    </mxGeometry>
                </mxCell>
                <mxCell id="62" value="" style="endArrow=classic;html=1;fontSize=14;entryX=0;entryY=0.5;entryDx=0;entryDy=0;exitX=1;exitY=1;exitDx=0;exitDy=0;exitPerimeter=0;" edge="1" parent="1" source="6" target="54">
                    <mxGeometry width="50" height="50" relative="1" as="geometry">
                        <mxPoint x="110" y="570" as="sourcePoint"/>
                        <mxPoint x="130" y="1030" as="targetPoint"/>
                    </mxGeometry>
                </mxCell>
                <mxCell id="64" value="" style="endArrow=classic;html=1;fontSize=14;exitX=0;exitY=0.3333333333333333;exitDx=0;exitDy=0;exitPerimeter=0;entryX=1;entryY=0.5;entryDx=0;entryDy=0;" edge="1" parent="1" source="50" target="11">
                    <mxGeometry width="50" height="50" relative="1" as="geometry">
                        <mxPoint x="750" y="660" as="sourcePoint"/>
                        <mxPoint x="730" y="250" as="targetPoint"/>
                    </mxGeometry>
                </mxCell>
                <mxCell id="65" value="Đăng ký" style="ellipse;whiteSpace=wrap;html=1;fontSize=14;" vertex="1" parent="1">
                    <mxGeometry x="180" y="1060" width="120" height="80" as="geometry"/>
                </mxCell>
                <mxCell id="66" value="Đăng nhập" style="ellipse;whiteSpace=wrap;html=1;fontSize=14;" vertex="1" parent="1">
                    <mxGeometry x="180" y="1150" width="120" height="80" as="geometry"/>
                </mxCell>
                <mxCell id="67" value="" style="endArrow=classic;html=1;fontSize=14;entryX=0;entryY=0.5;entryDx=0;entryDy=0;exitX=1;exitY=1;exitDx=0;exitDy=0;exitPerimeter=0;" edge="1" parent="1" source="6" target="65">
                    <mxGeometry width="50" height="50" relative="1" as="geometry">
                        <mxPoint x="90" y="630" as="sourcePoint"/>
                        <mxPoint x="170" y="1100" as="targetPoint"/>
                    </mxGeometry>
                </mxCell>
                <mxCell id="68" value="" style="endArrow=classic;html=1;fontSize=14;entryX=0;entryY=0.5;entryDx=0;entryDy=0;exitX=1;exitY=1;exitDx=0;exitDy=0;exitPerimeter=0;" edge="1" parent="1" source="6" target="66">
                    <mxGeometry width="50" height="50" relative="1" as="geometry">
                        <mxPoint x="110" y="1310" as="sourcePoint"/>
                        <mxPoint x="160" y="1260" as="targetPoint"/>
                    </mxGeometry>
                </mxCell>
            </root>
        </mxGraphModel>
    </diagram>
</mxfile>